<svg viewBox="0 0 800 800" xmlns="http://www.w3.org/2000/svg"><path d="M183.67657105333612,397.0978076064948 L183.6517863246104,395.70058871449345 M19.42307943574133,490.0924444609688 L19.379392755853132,488.6850568744628 M183.67657105333612,397.0978076064948 L19.42307943574133,490.0924444609688 M183.6517863246104,395.70058871449345 L19.379392755853132,488.6850568744628 M17.026767118852717,511.0647289471586 L16.982665557190103,509.6550903599487 M19.42307943574133,490.0924444609688 L16.75791066627471,491.8381782775628 M16.75791066627471,491.8381782775628 L14.555123530698381,493.7906392251205 M14.555123530698381,493.7906392251205 L12.864990044216768,495.905854511379 M12.864990044216768,495.905854511379 L11.72624199163863,498.1360903815798 M11.72624199163863,498.1360903815798 L11.165309846143941,500.4309161901987 M11.165309846143941,500.4309161901987 L11.195506900295982,502.7383230633177 M11.195506900295982,502.7383230633177 L11.81681122882543,505.00590469170567 M11.81681122882543,505.00590469170567 L13.015681364998557,507.18207371368777 M13.015681364998557,507.18207371368777 L14.765465838673435,509.21716985083066 M14.765465838673435,509.21716985083066 L17.026767118852717,511.0647289471586 M19.379392755853132,488.6850568744628 L16.713911197892344,490.4306027242441 M16.713911197892344,490.4306027242441 L14.51086188287087,492.3828535739069 M14.51086188287087,492.3828535739069 L12.820522834093879,494.49784140093146 M12.820522834093879,494.49784140093146 L11.681630588876772,496.7278376145282 M11.681630588876772,496.7278376145282 L11.1206190187458,499.02241700943404 M11.1206190187458,499.02241700943404 L11.150803353659114,501.3295763056598 M11.150803353659114,501.3295763056598 L11.772162104075676,503.59691481368367 M11.772162104075676,503.59691481368367 L12.971152699864092,505.77285068714133 M12.971152699864092,505.77285068714133 L14.721121059256063,507.8077289414295 M14.721121059256063,507.8077289414295 L16.982665557190103,509.6550903599487 M18.10817595602731,511.76896350447754 L18.064191990949894,510.3592496001406 M17.026767118852717,511.0647289471586 L18.10817595602731,511.76896350447754 M16.982665557190103,509.6550903599487 L18.064191990949894,510.3592496001406 M196.74427156862902,620.7482742877482 L196.72011017725566,619.3271164984035 M18.10817595602731,511.76896350447754 L196.74427156862902,620.7482742877482 M18.064191990949894,510.3592496001406 L196.72011017725566,619.3271164984035 M199.2067817414151,622.0696342910658 L199.18289908007048,620.6483403229299 M196.74427156862902,620.7482742877482 L199.2067817414151,622.0696342910658 M196.72011017725566,619.3271164984035 L199.18289908007048,620.6483403229299 M234.34511178102028,620.7482742877482 L234.32528038806151,619.3271164984035 M199.2067817414151,622.0696342910658 L202.73225350139575,623.4676396361281 M202.73225350139575,623.4676396361281 L206.5979400915864,624.506472273014 M206.5979400915864,624.506472273014 L210.70384656901848,625.159068287393 M210.70384656901848,625.159068287393 L214.94365611944937,625.4084140289795 M214.94365611944937,625.4084140289795 L219.20753288607278,625.247971645761 M219.20753288607278,625.247971645761 L223.38497033727904,624.6819430970331 M223.38497033727904,624.6819430970331 L227.3677684313174,623.725102037836 M227.3677684313174,623.725102037836 L231.0528832726352,622.4023949476109 M231.0528832726352,622.4023949476109 L234.34511178102028,620.7482742877482 M199.18289908007048,620.6483403229299 L202.7087718659989,622.0462016573797 M202.7087718659989,622.0462016573797 L206.57490012939664,623.0849273273257 M206.57490012939664,623.0849273273257 L210.68127744315936,623.7374561644494 M210.68127744315936,623.7374561644494 L214.92157472296464,623.9867762427355 M214.92157472296464,623.9867762427355 L219.18594338761852,623.8263503724047 M219.18594338761852,623.8263503724047 L223.363864065723,623.2603800871611 M223.363864065723,623.2603800871611 L227.34712411576584,622.3036375450379 M227.34712411576584,622.3036375450379 L231.0326676228828,620.9810666950368 M231.0326676228828,620.9810666950368 L234.32528038806151,619.3271164984035 M398.716429622554,523.9358667566094 L398.715540153959,522.5248543838188 M234.34511178102028,620.7482742877482 L398.716429622554,523.9358667566094 M234.32528038806151,619.3271164984035 L398.715540153959,522.5248543838188 M450.972650472786,554.7584206555166 L450.97771341676236,553.3441422848264 M398.716429622554,523.9358667566094 L450.972650472786,554.7584206555166 M398.715540153959,522.5248543838188 L450.97771341676236,553.3441422848264 M453.46124310327497,556.0531361524907 L453.46659079581457,554.6387213272503 M450.972650472786,554.7584206555166 L453.46124310327497,556.0531361524907 M450.97771341676236,553.3441422848264 L453.46659079581457,554.6387213272503 M488.1924980875936,554.7584206555168 L488.2018037216914,553.3441422848264 M453.46124310327497,556.0531361524907 L457.0050109988787,557.422945684079 M457.0050109988787,557.422945684079 L460.87161803214093,558.4408226598482 M460.87161803214093,558.4408226598482 L464.9611092362293,559.0802582313293 M464.9611092362293,559.0802582313293 L469.1675670250309,559.3245674924608 M469.1675670250309,559.3245674924608 L473.3820152854124,559.167362259873 M473.3820152854124,559.167362259873 L477.49522860506823,558.6127535059875 M477.49522860506823,558.6127535059875 L481.40072887978226,557.6752203902529 M481.40072887978226,557.6752203902529 L484.9974378398387,556.379186032146 M484.9974378398387,556.379186032146 L488.1924980875936,554.7584206555168 M453.46659079581457,554.6387213272503 L457.01076394866925,556.0083865543991 M457.01076394866925,556.0083865543991 L460.87781289630027,557.0261563435092 M460.87781289630027,557.0261563435092 L464.9677711881855,557.6655245985144 M464.9677711881855,557.6655245985144 L469.17470906306556,557.9098081438453 M469.17470906306556,557.9098081438453 L473.38963788290187,557.7526194583145 M473.38963788290187,557.7526194583145 L477.50331969266597,557.1980690882356 M477.50331969266597,557.1980690882356 L481.40926418066186,556.2606346915873 M481.40926418066186,556.2606346915873 L485.0063815172787,554.9647368527228 M485.0063815172787,554.9647368527228 L488.2018037216914,553.3441422848264 M682.2748897362683,438.94614785991513 L682.3057541440912,437.54431513084677 M488.1924980875936,554.7584206555168 L682.2748897362683,438.94614785991513 M488.2018037216914,553.3441422848264 L682.3057541440912,437.54431513084677 M682.4897999772261,418.44287511827724 L682.5205883951614,417.04329516568004 M682.2748897362683,438.94614785991513 L684.7374940807367,437.2292185927292 M684.7374940807367,437.2292185927292 L686.7176785936222,435.31118717143903 M686.7176785936222,435.31118717143903 L688.1707749925761,433.2358994081317 M688.1707749925761,433.2358994081317 L689.0642490213409,431.050728310685 M689.0642490213409,431.050728310685 L689.3783819537623,428.8054432628375 M689.3783819537623,428.8054432628375 L689.1066601492025,426.5510789486563 M689.1066601492025,426.5510789486563 L688.2558205584228,424.33875189302506 M688.2558205584228,424.33875189302506 L686.8457970877896,422.218570783063 M686.8457970877896,422.218570783063 L684.9090253672982,420.2383926027468 M684.9090253672982,420.2383926027468 L682.4897999772261,418.44287511827724 M682.3057541440912,437.54431513084677 L684.7686257111982,435.82757393927113 M684.7686257111982,435.82757393927113 L686.7490223271218,433.90975274595814 M686.7490223271218,433.90975274595814 L688.2022709601199,431.83469259340467 M688.2022709601199,431.83469259340467 L689.0958339991325,429.64976132295334 M689.0958339991325,429.64976132295334 L689.4099908227897,427.4047228756047 M689.4099908227897,427.4047228756047 L689.1382273857441,425.15060633844496 M689.1382273857441,425.15060633844496 L688.2872817159957,422.93852261423325 M688.2872817159957,422.93852261423325 L686.8770902598787,420.81857486306296 M686.8770902598787,420.81857486306296 L684.9400925591119,418.838614775598 M684.9400925591119,418.838614775598 L682.5205883951614,417.04329516568004 M681.3521595608017,417.7590220441987 L681.3828177183559,416.3595174854337 M682.4897999772261,418.44287511827724 L681.3521595608017,417.7590220441987 M682.5205883951614,417.04329516568004 L681.3828177183559,416.3595174854337 M629.1230655058221,388.2295803805726 L629.147780381277,386.8333471746845 M681.3521595608017,417.7590220441987 L629.1230655058221,388.2295803805726 M681.3828177183559,416.3595174854337 L629.147780381277,386.8333471746845 M782.0481021539636,298.15887239995385 L782.0892005231487,296.7728079320694 M629.1230655058221,388.2295803805726 L782.0481021539636,298.15887239995385 M629.147780381277,386.8333471746845 L782.0892005231487,296.7728079320694 M781.9422925595752,278.5559680512865 L781.9832492184948,277.17215470843905 M782.0481021539636,298.15887239995385 L784.4295000058592,296.51744722851845 M784.4295000058592,296.51744722851845 L786.336133381651,294.6837402062219 M786.336133381651,294.6837402062219 L787.724986918648,292.6996677931381 M787.724986918648,292.6996677931381 L788.5650045648583,290.6105050580511 M788.5650045648583,290.6105050580511 L788.8376050257411,288.46383099682527 M788.8376050257411,288.46383099682527 L788.5372188262104,286.30844238227104 M788.5372188262104,286.30844238227104 L787.671225908065,284.19323272339255 M787.671225908065,284.19323272339255 L786.2598553489163,282.1660628795806 M786.2598553489163,282.1660628795806 L784.3355355268013,280.27275666900704 M784.3355355268013,280.27275666900704 L781.9422925595752,278.5559680512865 M782.0892005231487,296.7728079320694 L784.4708480561135,295.13157073458393 M784.4708480561135,295.13157073458393 L786.3776777468665,293.2980738187766 M786.3776777468665,293.2980738187766 L787.7666698380467,291.3142288749969 M787.7666698380467,291.3142288749969 L788.6067652319477,289.2253058080257 M788.6067652319477,289.2253058080257 L788.8793809812541,287.07887817336 M788.8793809812541,287.07887817336 L788.5789473958655,284.9237371496886 M788.5789473958655,284.9237371496886 L787.7128456186817,282.8087706260163 M787.7128456186817,282.8087706260163 L786.301307318686,280.7818339460362 M786.301307318686,280.7818339460362 L784.3767647711825,278.8887456336134 M784.3767647711825,278.8887456336134 L781.9832492184948,277.17215470843905 M780.8193203612243,277.90209131939906 L780.8601501699204,276.5183532995151 M781.9422925595752,278.5559680512865 L780.8193203612243,277.90209131939906 M781.9832492184948,277.17215470843905 L780.8601501699204,276.5183532995151 M602.1707168946855,180.00854175300194 L602.1917185647089,178.63625108597094 M780.8193203612243,277.90209131939906 L602.1707168946855,180.00854175300194 M780.8601501699204,276.5183532995151 L602.1917185647089,178.63625108597094 M599.799094572156,178.86042461627187 L599.8198376944019,177.48827021671713 M602.1707168946855,180.00854175300194 L599.799094572156,178.86042461627187 M602.1917185647089,178.63625108597094 L599.8198376944019,177.48827021671713 M567.1144887145092,180.00854175300194 L567.1317266444196,178.63625108597094 M599.799094572156,178.86042461627187 L596.4347658725164,177.64669036572005 M596.4347658725164,177.64669036572005 L592.7762415089221,176.74543763223062 M592.7762415089221,176.74543763223062 L588.9171927304785,176.17955325357107 M588.9171927304785,176.17955325357107 L584.9562948249993,175.9633963215253 M584.9562948249993,175.9633963215253 L580.9947545326279,176.10247958607414 M580.9947545326279,176.10247958607414 L577.1338241274254,176.59326042540033 M577.1338241274254,176.59326042540033 L573.4722197055005,177.423273780325 M573.4722197055005,177.423273780325 L570.1036519307943,178.57143387904776 M570.1036519307943,178.57143387904776 L567.1144887145092,180.00854175300194 M599.8198376944019,177.48827021671713 L596.4551437833843,176.27468007227313 M596.4551437833843,176.27468007227313 L592.7962238147406,175.37353437780544 M592.7962238147406,175.37353437780544 L588.9367591152395,174.80771722217534 M588.9367591152395,174.80771722217534 L584.975435542342,174.59158597102052 M584.975435542342,174.59158597102052 L581.0134706397293,174.73065271135658 M581.0134706397293,174.73065271135658 L577.1521274607471,175.22137524742917 M577.1521274607471,175.22137524742917 L573.4901325892536,176.05129001870316 M573.4901325892536,176.05129001870316 L570.1212066297937,177.19931378650517 M570.1212066297937,177.19931378650517 L567.1317266444196,178.63625108597094 M414.08307545946644,266.649626595884 L414.08389501632786,265.26718716603807 M567.1144887145092,180.00854175300194 L414.08307545946644,266.649626595884 M567.1317266444196,178.63625108597094 L414.08389501632786,265.26718716603807 M364.3201034438356,238.51448839882153 L364.31552507148905,237.13531549536177 M414.08307545946644,266.649626595884 L364.3201034438356,238.51448839882153 M414.08389501632786,265.26718716603807 L364.31552507148905,237.13531549536177 M361.9710593120442,237.3441414376289 L361.96622723180724,235.96510501936024 M364.3201034438356,238.51448839882153 L361.9710593120442,237.3441414376289 M364.31552507148905,237.13531549536177 L361.96622723180724,235.96510501936024 M328.9260910232078,238.51448839882144 L328.9176760263169,237.13531549536168 M361.9710593120442,237.3441414376289 L358.62231551649006,236.1069115223258 M358.62231551649006,236.1069115223258 L354.9642287955006,235.1882152754256 M354.9642287955006,235.1882152754256 L351.09039969727854,234.61137463114426 M351.09039969727854,234.61137463114426 L347.09990661727625,234.3910398869618 M347.09990661727625,234.3910398869618 L343.09471523432137,234.53281454873883 M343.09471523432137,234.53281454873883 L339.1771953029446,235.03309297745517 M339.1771953029446,235.03309297745517 L335.44745597484064,235.87916545677146 M335.44745597484064,235.87916545677146 L332.00098519039824,237.04955593848288 M332.00098519039824,237.04955593848288 L328.9260910232078,238.51448839882144 M361.96622723180724,235.96510501936024 L358.61712155866667,234.72801944176317 M358.61712155866667,234.72801944176317 L354.9586393039288,233.80943040681427 M354.9586393039288,233.80943040681427 L351.08439108575277,233.23265709515064 M351.08439108575277,233.23265709515064 L347.09346595313974,233.01234807298783 M347.09346595313974,233.01234807298783 L343.08784055016076,233.15410618370282 M343.08784055016076,233.15410618370282 L339.1698956489264,233.65432621457776 M339.1698956489264,233.65432621457776 L335.4397511918774,234.50029995141708 M335.4397511918774,234.50029995141708 L331.9929054359465,235.6705538822356 M331.9929054359465,235.6705538822356 L328.9176760263169,237.13531549536168 M134.84138138734215,347.04686897181216 L134.8114065858697,345.65524958631266 M328.9260910232078,238.51448839882144 L134.84138138734215,347.04686897181216 M328.9176760263169,237.13531549536168 L134.8114065858697,345.65524958631266 M132.86971592857464,367.08807701982147 L132.83942662263826,365.69420486776534 M134.84138138734215,347.04686897181216 L132.2668291542907,348.71521215376305 M132.2668291542907,348.71521215376305 L130.14797902166265,350.58109375145193 M130.14797902166265,350.58109375145193 L128.53318265896888,352.60248894029195 M128.53318265896888,352.60248894029195 L127.4594861972439,354.7337649219689 M127.4594861972439,354.7337649219689 L126.951767366475,356.92672474379145 M126.951767366475,356.92672474379145 L127.02213352289465,359.1316715471641 M127.02213352289465,359.1316715471641 L127.66963879716525,361.29854772464176 M127.66963879716525,361.29854772464176 L128.8801034534374,363.3780075551555 M128.8801034534374,363.3780075551555 L130.62656355680792,365.3226656766423 M130.62656355680792,365.3226656766423 L132.86971592857464,367.08807701982147 M134.8114065858697,345.65524958631266 L132.2365622440508,347.3234046933405 M132.2365622440508,347.3234046933405 L130.1174691836768,349.1890760638828 M130.1174691836768,349.1890760638828 L128.5024846425684,351.2102436429284 M128.5024846425684,351.2102436429284 L127.42865910959097,353.34127979867213 M127.42865910959097,353.34127979867213 L126.92087335676382,355.53399302112524 M126.92087335676382,355.53399302112524 L126.99123638841195,357.73869204863206 M126.99123638841195,357.73869204863206 L127.63880254515487,359.90532489582927 M127.63880254515487,359.90532489582927 L128.84939083011835,361.9845513686339 M128.84939083011835,361.9845513686339 L130.59603461279568,363.92899139826164 M130.59603461279568,363.92899139826164 L132.83942662263826,365.69420486776534 M133.93925125922794,367.76098999515597 L133.90907707601252,366.36704244959367 M132.86971592857464,367.08807701982147 L133.93925125922794,367.76098999515597 M132.83942662263826,365.69420486776534 L133.90907707601252,366.36704244959367 M133.93925125922794,367.76098999515597 L183.67657105333612,397.0978076064948 M133.90907707601252,366.36704244959367 L183.6517863246104,395.70058871449345" stroke="black"  stroke-width="4"  fill="red"/></svg>